# xmcd
#
# Track frame offsets:
#	150
#	56746
#	103545
#	155998
#	186635
#
# Disc length: 2935 seconds
#
# Revision: 0
# Processed by: cddbd v1.5.2PL0 Copyright (c) Steve Scherf et al.
# Submitted via: audiograbber 1.83.01
#
DISCID=480b7505
DTITLE=Grateful Dead - 94-10-13 Madison Square Garden, New York NY
DYEAR=1900
DGENRE=
TTITLE0=Space
TTITLE1=The Other One
TTITLE2=Wharf Rat
TTITLE3=Johnny B Goode
TTITLE4=It's All Over Now, Baby Blue
EXTD=
EXTT0=
EXTT1=
EXTT2=
EXTT3=
EXTT4=
PLAYORDER=
